<?xml version="1.0" encoding="utf-8"?>
<!-- Generator: Adobe Illustrator 19.0.0, SVG Export Plug-In . SVG Version: 6.00 Build 0)  -->
<svg version="1.1" id="Layer_3" xmlns="http://www.w3.org/2000/svg" xmlns:xlink="http://www.w3.org/1999/xlink" x="0px" y="0px"
	 viewBox="-49 141 512 512" style="enable-background:new -49 141 512 512;" xml:space="preserve">
<style type="text/css">
	.st0{fill:#FFFFFF;}
</style>
<g>
	<path class="st0" d="M453.5,384.4l-80-112c-1.5-2.1-3.9-3.4-6.5-3.4h-8v-16c0-4.4-3.6-8-8-8v-8c0-17.6-14.4-32-32-32
		s-32,14.4-32,32v8c-4.4,0-8,3.6-8,8v16h-16v-24c0-4.4-3.6-8-8-8H-33c-4.4,0-8,3.6-8,8v288c0,4.4,3.6,8,8,8H7.6
		c3.9,27.1,27.2,48,55.4,48s51.5-20.9,55.4-48h161.3c3.9,27.1,27.2,48,55.4,48s51.5-20.9,55.4-48H415c22.1,0,40-17.9,40-40V389
		C455,387.3,454.5,385.7,453.5,384.4z M431.5,381H311v-96h51.9L431.5,381z M303,237c0-8.8,7.2-16,16-16s16,7.2,16,16v8h-32V237z
		 M295,261h48v8h-48V261z M295,285v104c0,4.4,3.6,8,8,8h136v72h-16c-17.6,0-32,14.4-32,32v24h-0.6c-3.9-27.1-27.2-48-55.4-48
		s-51.5,20.9-55.4,48H263V285H295z M-25,253h272v272h-16v-56c0-4.4-3.6-8-8-8h-80c-4.4,0-8,3.6-8,8v56h-16.6
		c-3.9-27.1-27.2-48-55.4-48s-51.5,20.9-55.4,48H-25V253z M215,525h-64v-48h64V525z M63,573c-22.1,0-40-17.9-40-40
		c0-22.1,17.9-40,40-40s40,17.9,40,40C103,555.1,85.1,573,63,573z M335,573c-22.1,0-40-17.9-40-40c0-22.1,17.9-40,40-40
		s40,17.9,40,40C375,555.1,357.1,573,335,573z M415,525h-8v-24c0-8.8,7.2-16,16-16h16v16C439,514.2,428.2,525,415,525z"/>
	<path class="st0" d="M63,509c-13.2,0-24,10.8-24,24s10.8,24,24,24s24-10.8,24-24S76.2,509,63,509z M63,541c-4.4,0-8-3.6-8-8
		s3.6-8,8-8s8,3.6,8,8S67.4,541,63,541z"/>
	<path class="st0" d="M335,509c-13.2,0-24,10.8-24,24s10.8,24,24,24s24-10.8,24-24S348.2,509,335,509z M335,541c-4.4,0-8-3.6-8-8
		s3.6-8,8-8s8,3.6,8,8S339.4,541,335,541z"/>
	<path class="st0" d="M295,413h32v16h-32V413z"/>
	<path class="st0" d="M55,405h24v24c0,4.4,3.6,8,8,8h48c4.4,0,8-3.6,8-8v-24h24c4.4,0,8-3.6,8-8v-48c0-4.4-3.6-8-8-8h-24v-24
		c0-4.4-3.6-8-8-8H87c-4.4,0-8,3.6-8,8v24H55c-4.4,0-8,3.6-8,8v48C47,401.4,50.6,405,55,405z M63,357h24c4.4,0,8-3.6,8-8v-24h32v24
		c0,4.4,3.6,8,8,8h24v32h-24c-4.4,0-8,3.6-8,8v24H95v-24c0-4.4-3.6-8-8-8H63V357z"/>
</g>
</svg>
