<?xml version="1.0" encoding="utf-8"?>
<!-- Generator: Adobe Illustrator 19.0.0, SVG Export Plug-In . SVG Version: 6.00 Build 0)  -->
<svg version="1.1" id="Layer_1" xmlns="http://www.w3.org/2000/svg" xmlns:xlink="http://www.w3.org/1999/xlink" x="0px" y="0px"
	 viewBox="0 0 67.6 52.3" style="enable-background:new 0 0 67.6 52.3;" xml:space="preserve">
<style type="text/css">
	.st0{fill:#1F2831;}
</style>
<path id="XMLID_69_" class="st0" d="M11.2,48.9c7.8,2.7,14.4-1.6,20.3-5.9c5.9-4.3,12.5,0.6,16.2,5.1c4.5,5.4,13.1,5.9,17.6,0.1
	c3.6-4.7,3.5-12.7-3.9-16.7c-7.1-3.8-12.8-8.5-14-15.1C46,9.9,45,2.9,37.6,0.5C31.9-1.4,27,2.2,26.5,8c-0.5,5.9-3.6,7.6-8.3,8.4
	c-4.7,0.7-8.5,1.1-11.9,3.7c-3.4,2.6-5.7,6-6.3,12.3C-0.5,38.7,3.4,46.2,11.2,48.9z"/>
</svg>
