<?xml version="1.0" encoding="utf-8"?>
<!-- Generator: Adobe Illustrator 19.0.0, SVG Export Plug-In . SVG Version: 6.00 Build 0)  -->
<svg version="1.1" id="Layer_1" xmlns="http://www.w3.org/2000/svg" xmlns:xlink="http://www.w3.org/1999/xlink" x="0px" y="0px"
	 viewBox="0 0 79.2 139.9" style="enable-background:new 0 0 79.2 139.9;" xml:space="preserve">
<style type="text/css">
	.st0{fill:#1F2831;}
</style>
<g>
	<g id="XMLID_718_">
		<g id="XMLID_801_">
			<path id="XMLID_802_" class="st0" d="M14,20.3L14,20.3c0.2,0.2,0.6,0.2,0.8,0L28,7.2c0.2-0.2,0.2-0.6,0-0.8v0
				c-0.2-0.2-0.6-0.2-0.8,0L14,19.5C13.8,19.7,13.8,20.1,14,20.3z"/>
		</g>
		<g id="XMLID_799_">
			<path id="XMLID_800_" class="st0" d="M8.1,30.1L8.1,30.1c0.2,0.2,0.6,0.2,0.8,0l27-26.7c0.2-0.2,0.2-0.6,0-0.8v0
				c-0.2-0.2-0.6-0.2-0.8,0l-27,26.7C7.9,29.6,7.9,29.9,8.1,30.1z"/>
		</g>
		<g id="XMLID_797_">
			<path id="XMLID_798_" class="st0" d="M5,37.1L5,37.1c0.2,0.2,0.6,0.2,0.8,0L41.5,1.8c0.2-0.2,0.2-0.6,0-0.8l0,0
				c-0.2-0.2-0.6-0.2-0.8,0L5,36.3C4.8,36.5,4.8,36.9,5,37.1z"/>
		</g>
		<g id="XMLID_795_">
			<path id="XMLID_796_" class="st0" d="M3.1,43L3.1,43c0.2,0.2,0.6,0.2,0.8,0L46.2,1.1c0.2-0.2,0.2-0.6,0-0.8l0,0
				c-0.2-0.2-0.6-0.2-0.8,0L3.1,42.2C2.8,42.4,2.8,42.8,3.1,43z"/>
		</g>
		<g id="XMLID_793_">
			<path id="XMLID_794_" class="st0" d="M1.8,48.2L1.8,48.2c0.2,0.2,0.6,0.2,0.8,0L50.3,1c0.2-0.2,0.2-0.6,0-0.8l0,0
				c-0.2-0.2-0.6-0.2-0.8,0L1.8,47.4C1.6,47.6,1.6,48,1.8,48.2z"/>
		</g>
		<g id="XMLID_791_">
			<path id="XMLID_792_" class="st0" d="M0.9,53L0.9,53c0.2,0.2,0.6,0.2,0.8,0L54,1.3c0.2-0.2,0.2-0.6,0-0.8l0,0
				c-0.2-0.2-0.6-0.2-0.8,0L0.9,52.2C0.7,52.4,0.7,52.8,0.9,53z"/>
		</g>
		<g id="XMLID_789_">
			<path id="XMLID_790_" class="st0" d="M0.4,57.4L0.4,57.4c0.2,0.2,0.6,0.2,0.8,0L57.3,1.9c0.2-0.2,0.2-0.6,0-0.8l0,0
				c-0.2-0.2-0.6-0.2-0.8,0L0.4,56.7C0.2,56.9,0.2,57.2,0.4,57.4z"/>
		</g>
		<g id="XMLID_787_">
			<path id="XMLID_788_" class="st0" d="M0.2,61.6L0.2,61.6c0.2,0.2,0.6,0.2,0.8,0L60.4,2.8c0.2-0.2,0.2-0.6,0-0.8h0
				c-0.2-0.2-0.6-0.2-0.8,0L0.2,60.8C0,61.1,0,61.4,0.2,61.6z"/>
		</g>
		<g id="XMLID_785_">
			<path id="XMLID_786_" class="st0" d="M0.2,65.6L0.2,65.6c0.2,0.2,0.6,0.2,0.8,0L63.1,4c0.2-0.2,0.2-0.6,0-0.8l0,0
				c-0.2-0.2-0.6-0.2-0.8,0L0.2,64.8C-0.1,65-0.1,65.4,0.2,65.6z"/>
		</g>
		<g id="XMLID_783_">
			<path id="XMLID_784_" class="st0" d="M0.3,69.4L0.3,69.4c0.2,0.2,0.6,0.2,0.8,0L65.7,5.5c0.2-0.2,0.2-0.6,0-0.8h0
				c-0.2-0.2-0.6-0.2-0.8,0L0.3,68.6C0.1,68.8,0.1,69.2,0.3,69.4z"/>
		</g>
		<g id="XMLID_781_">
			<path id="XMLID_782_" class="st0" d="M0.6,73L0.6,73c0.2,0.2,0.6,0.2,0.8,0L68,7.1c0.2-0.2,0.2-0.6,0-0.8l0,0
				c-0.2-0.2-0.6-0.2-0.8,0L0.6,72.2C0.4,72.5,0.4,72.8,0.6,73z"/>
		</g>
		<g id="XMLID_779_">
			<path id="XMLID_780_" class="st0" d="M1.1,76.5L1.1,76.5c0.2,0.2,0.6,0.2,0.8,0L70.1,8.9c0.2-0.2,0.2-0.6,0-0.8l0,0
				c-0.2-0.2-0.6-0.2-0.8,0L1.1,75.7C0.9,75.9,0.9,76.3,1.1,76.5z"/>
		</g>
		<g id="XMLID_777_">
			<path id="XMLID_778_" class="st0" d="M1.7,79.9L1.7,79.9c0.2,0.2,0.6,0.2,0.8,0L72.1,11c0.2-0.2,0.2-0.6,0-0.8l0,0
				c-0.2-0.2-0.6-0.2-0.8,0L1.7,79.1C1.5,79.3,1.5,79.7,1.7,79.9z"/>
		</g>
		<g id="XMLID_775_">
			<path id="XMLID_776_" class="st0" d="M2.4,83.2L2.4,83.2c0.2,0.2,0.6,0.2,0.8,0l70.7-70c0.2-0.2,0.2-0.6,0-0.8v0
				c-0.2-0.2-0.6-0.2-0.8,0l-70.7,70C2.2,82.6,2.2,82.9,2.4,83.2z"/>
		</g>
		<g id="XMLID_773_">
			<path id="XMLID_774_" class="st0" d="M3.2,86.3L3.2,86.3c0.2,0.2,0.6,0.2,0.8,0l71.4-70.7c0.2-0.2,0.2-0.6,0-0.8l0,0
				c-0.2-0.2-0.6-0.2-0.8,0L3.2,85.5C2.9,85.8,2.9,86.1,3.2,86.3z"/>
		</g>
		<g id="XMLID_771_">
			<path id="XMLID_772_" class="st0" d="M4,89.4L4,89.4c0.2,0.2,0.6,0.2,0.8,0l71.9-71.2c0.2-0.2,0.2-0.6,0-0.8v0
				c-0.2-0.2-0.6-0.2-0.8,0L4,88.6C3.8,88.8,3.8,89.2,4,89.4z"/>
		</g>
		<g id="XMLID_769_">
			<path id="XMLID_770_" class="st0" d="M5,92.4L5,92.4c0.2,0.2,0.6,0.2,0.8,0L77.9,21c0.2-0.2,0.2-0.6,0-0.8v0
				c-0.2-0.2-0.6-0.2-0.8,0L5,91.6C4.8,91.8,4.8,92.2,5,92.4z"/>
		</g>
		<g id="XMLID_767_">
			<path id="XMLID_768_" class="st0" d="M6,95.3L6,95.3c0.2,0.2,0.6,0.2,0.8,0l71.8-71.1c0.2-0.2,0.2-0.6,0-0.8v0
				c-0.2-0.2-0.6-0.2-0.8,0L6,94.5C5.8,94.8,5.8,95.1,6,95.3z"/>
		</g>
		<g id="XMLID_765_">
			<path id="XMLID_766_" class="st0" d="M7.2,98.2L7.2,98.2c0.2,0.2,0.6,0.2,0.8,0l71.1-70.4c0.2-0.2,0.2-0.6,0-0.8l0,0
				c-0.2-0.2-0.6-0.2-0.8,0L7.2,97.4C6.9,97.6,6.9,98,7.2,98.2z"/>
		</g>
		<g id="XMLID_763_">
			<path id="XMLID_764_" class="st0" d="M8.3,101L8.3,101c0.2,0.2,0.6,0.2,0.8,0L79,31.8c0.2-0.2,0.2-0.6,0-0.8l0,0
				c-0.2-0.2-0.6-0.2-0.8,0L8.3,100.2C8.1,100.4,8.1,100.8,8.3,101z"/>
		</g>
		<g id="XMLID_761_">
			<path id="XMLID_762_" class="st0" d="M9.6,103.7L9.6,103.7c0.2,0.2,0.6,0.2,0.8,0l67.8-67.2c0.2-0.2,0.2-0.6,0-0.8v0
				c-0.2-0.2-0.6-0.2-0.8,0L9.6,102.9C9.3,103.1,9.3,103.5,9.6,103.7z"/>
		</g>
		<g id="XMLID_759_">
			<path id="XMLID_760_" class="st0" d="M10.9,106.3L10.9,106.3c0.2,0.2,0.6,0.2,0.8,0l64.6-64c0.2-0.2,0.2-0.6,0-0.8l0,0
				c-0.2-0.2-0.6-0.2-0.8,0l-64.6,64C10.6,105.8,10.6,106.1,10.9,106.3z"/>
		</g>
		<g id="XMLID_757_">
			<path id="XMLID_758_" class="st0" d="M12.2,108.9L12.2,108.9c0.2,0.2,0.6,0.2,0.8,0l59.2-58.7c0.2-0.2,0.2-0.6,0-0.8h0
				c-0.2-0.2-0.6-0.2-0.8,0l-59.2,58.7C12,108.4,12,108.7,12.2,108.9z"/>
		</g>
		<g id="XMLID_755_">
			<path id="XMLID_756_" class="st0" d="M13.7,111.5L13.7,111.5c0.2,0.2,0.6,0.2,0.8,0l47-46.6c0.2-0.2,0.2-0.6,0-0.8v0
				c-0.2-0.2-0.6-0.2-0.8,0l-47,46.6C13.5,110.9,13.5,111.2,13.7,111.5z"/>
		</g>
		<g id="XMLID_753_">
			<path id="XMLID_754_" class="st0" d="M15.2,113.9L15.2,113.9c0.2,0.2,0.6,0.2,0.8,0l40.5-40.1c0.2-0.2,0.2-0.6,0-0.8l0,0
				c-0.2-0.2-0.6-0.2-0.8,0l-40.5,40.1C15,113.3,15,113.7,15.2,113.9z"/>
		</g>
		<g id="XMLID_751_">
			<path id="XMLID_752_" class="st0" d="M16.8,116.3L16.8,116.3c0.2,0.2,0.6,0.2,0.8,0l37-36.7c0.2-0.2,0.2-0.6,0-0.8l0,0
				c-0.2-0.2-0.6-0.2-0.8,0l-37,36.7C16.6,115.7,16.6,116.1,16.8,116.3z"/>
		</g>
		<g id="XMLID_749_">
			<path id="XMLID_750_" class="st0" d="M18.4,118.6L18.4,118.6c0.2,0.2,0.6,0.2,0.8,0l34.4-34c0.2-0.2,0.2-0.6,0-0.8l0,0
				c-0.2-0.2-0.6-0.2-0.8,0l-34.4,34C18.2,118,18.2,118.4,18.4,118.6z"/>
		</g>
		<g id="XMLID_747_">
			<path id="XMLID_748_" class="st0" d="M20.2,120.8L20.2,120.8c0.2,0.2,0.6,0.2,0.8,0L53.1,89c0.2-0.2,0.2-0.6,0-0.8h0
				c-0.2-0.2-0.6-0.2-0.8,0L20.2,120C20,120.2,20,120.6,20.2,120.8z"/>
		</g>
		<g id="XMLID_745_">
			<path id="XMLID_746_" class="st0" d="M22,123L22,123c0.2,0.2,0.6,0.2,0.8,0L53,93.1c0.2-0.2,0.2-0.6,0-0.8l0,0
				c-0.2-0.2-0.6-0.2-0.8,0L22,122.2C21.8,122.4,21.8,122.8,22,123z"/>
		</g>
		<g id="XMLID_743_">
			<path id="XMLID_744_" class="st0" d="M23.9,125L23.9,125c0.2,0.2,0.6,0.2,0.8,0l28.4-28.2c0.2-0.2,0.2-0.6,0-0.8h0
				c-0.2-0.2-0.6-0.2-0.8,0l-28.4,28.2C23.7,124.5,23.7,124.8,23.9,125z"/>
		</g>
		<g id="XMLID_741_">
			<path id="XMLID_742_" class="st0" d="M25.9,127L25.9,127c0.2,0.2,0.6,0.2,0.8,0l26.9-26.6c0.2-0.2,0.2-0.6,0-0.8v0
				c-0.2-0.2-0.6-0.2-0.8,0l-26.9,26.6C25.7,126.5,25.7,126.8,25.9,127z"/>
		</g>
		<g id="XMLID_739_">
			<path id="XMLID_740_" class="st0" d="M27.9,128.9L27.9,128.9c0.2,0.2,0.6,0.2,0.8,0l25.4-25.2c0.2-0.2,0.2-0.6,0-0.8l0,0
				c-0.2-0.2-0.6-0.2-0.8,0l-25.4,25.2C27.7,128.4,27.7,128.7,27.9,128.9z"/>
		</g>
		<g id="XMLID_737_">
			<path id="XMLID_738_" class="st0" d="M30.1,130.7L30.1,130.7c0.2,0.2,0.6,0.2,0.8,0L55,106.9c0.2-0.2,0.2-0.6,0-0.8h0
				c-0.2-0.2-0.6-0.2-0.8,0l-24.1,23.9C29.9,130.2,29.9,130.5,30.1,130.7z"/>
		</g>
		<g id="XMLID_735_">
			<path id="XMLID_736_" class="st0" d="M32.4,132.4L32.4,132.4c0.2,0.2,0.6,0.2,0.8,0l22.9-22.7c0.2-0.2,0.2-0.6,0-0.8l0,0
				c-0.2-0.2-0.6-0.2-0.8,0l-22.9,22.7C32.2,131.9,32.2,132.2,32.4,132.4z"/>
		</g>
		<g id="XMLID_733_">
			<path id="XMLID_734_" class="st0" d="M34.8,134L34.8,134c0.2,0.2,0.6,0.2,0.8,0l21.8-21.6c0.2-0.2,0.2-0.6,0-0.8l0,0
				c-0.2-0.2-0.6-0.2-0.8,0l-21.8,21.6C34.5,133.5,34.5,133.8,34.8,134z"/>
		</g>
		<g id="XMLID_731_">
			<path id="XMLID_732_" class="st0" d="M37.3,135.5L37.3,135.5c0.2,0.2,0.6,0.2,0.8,0l20.8-20.6c0.2-0.2,0.2-0.6,0-0.8l0,0
				c-0.2-0.2-0.6-0.2-0.8,0l-20.8,20.6C37,134.9,37,135.3,37.3,135.5z"/>
		</g>
		<g id="XMLID_729_">
			<path id="XMLID_730_" class="st0" d="M39.9,136.8L39.9,136.8c0.2,0.2,0.6,0.2,0.8,0l20-19.8c0.2-0.2,0.2-0.6,0-0.8l0,0
				c-0.2-0.2-0.6-0.2-0.8,0l-20,19.8C39.7,136.2,39.7,136.6,39.9,136.8z"/>
		</g>
		<g id="XMLID_727_">
			<path id="XMLID_728_" class="st0" d="M42.7,138L42.7,138c0.2,0.2,0.6,0.2,0.8,0l19-18.8c0.2-0.2,0.2-0.6,0-0.8v0
				c-0.2-0.2-0.6-0.2-0.8,0l-19,18.8C42.5,137.4,42.5,137.7,42.7,138z"/>
		</g>
		<g id="XMLID_725_">
			<path id="XMLID_726_" class="st0" d="M45.8,138.9L45.8,138.9c0.2,0.2,0.6,0.2,0.8,0l17.5-17.3c0.2-0.2,0.2-0.6,0-0.8l0,0
				c-0.2-0.2-0.6-0.2-0.8,0l-17.5,17.3C45.6,138.3,45.6,138.7,45.8,138.9z"/>
		</g>
		<g id="XMLID_723_">
			<path id="XMLID_724_" class="st0" d="M49.1,139.6L49.1,139.6c0.2,0.2,0.6,0.2,0.8,0l15.4-15.2c0.2-0.2,0.2-0.6,0-0.8l0,0
				c-0.2-0.2-0.6-0.2-0.8,0l-15.4,15.2C48.9,139,48.9,139.3,49.1,139.6z"/>
		</g>
		<g id="XMLID_721_">
			<path id="XMLID_722_" class="st0" d="M52.9,139.8L52.9,139.8c0.2,0.2,0.6,0.2,0.8,0l12.2-12.1c0.2-0.2,0.2-0.6,0-0.8v0
				c-0.2-0.2-0.6-0.2-0.8,0L52.9,139C52.7,139.2,52.7,139.6,52.9,139.8z"/>
		</g>
		<g id="XMLID_719_">
			<path id="XMLID_720_" class="st0" d="M57.8,138.9L57.8,138.9c0.2,0.2,0.6,0.2,0.8,0l6.4-6.4c0.2-0.2,0.2-0.6,0-0.8h0
				c-0.2-0.2-0.6-0.2-0.8,0l-6.4,6.4C57.6,138.3,57.6,138.6,57.8,138.9z"/>
		</g>
	</g>
</g>
</svg>
