<?xml version="1.0" encoding="utf-8"?>
<!-- Generator: Adobe Illustrator 19.0.0, SVG Export Plug-In . SVG Version: 6.00 Build 0)  -->
<svg version="1.1" id="Capa_1" xmlns="http://www.w3.org/2000/svg" xmlns:xlink="http://www.w3.org/1999/xlink" x="0px" y="0px"
	 viewBox="-65 157 480 480" style="enable-background:new -65 157 480 480;" xml:space="preserve">
<style type="text/css">
	.st0{fill:#FFFFFF;}
</style>
<g>
	<g>
		<path class="st0" d="M414.4,424.6c-3.5-24.6-22.9-43.9-47.4-47.4v-14.5c0-40.1-30.5-72.8-68-72.8c-36.4,0-66.9,31.7-68,70.6h0.5
			l-0.5,0.1v157.7c0,50.4-37.7,91.3-84,91.3s-84-41-84-91.3v-13.7c11.6,0,24-8.4,24-32v-20.1c51.3-13.1,88-57.2,88-107.2v-16.7h-16
			l-0.3-104.1c-0.1-19.3-13.9-35.7-32.9-39.2c-4.1-12.5-17.6-19.4-30.1-15.3C83.1,174,76.3,187.5,80.4,200
			c4.1,12.5,17.6,19.4,30.1,15.3c6.7-2.2,12.1-7.2,14.7-13.8c10.2,2.9,17.3,12.2,17.4,22.9l0.4,104.1h-16v16.9
			c-0.6,27.8-19.3,52-46,59.7c-14.3,4.5-29.7,4.5-44,0c-26.7-7.7-45.3-31.9-46-59.7v-16.9h-24v-104c0-10.8,7.3-20.3,17.8-23.1
			c4.9,12.4,18.9,18.5,31.3,13.6s18.5-18.9,13.6-31.3s-18.9-18.5-31.3-13.6c-6.7,2.6-11.9,8.1-14.1,15
			c-19.2,3.3-33.2,19.9-33.3,39.3v104h-16v16.6c0,50,36.7,94.1,88,107.2v20.1c0,23.6,12.4,32,24,32v13.7
			c0,59.2,44.9,107.3,100,107.3s100-48.2,100-107.3V360.9c0.8-30.4,24.1-55.1,52-55.1c28.7,0,52,25.5,52,56.8v14.5
			c-30.6,4.4-51.8,32.8-47.4,63.4s32.8,51.8,63.4,47.4S418.8,455.2,414.4,424.6z M103,200.5c-4.4,0-8-3.6-8-8s3.6-8,8-8s8,3.6,8,8
			S107.4,200.5,103,200.5z M7,184.5c4.4,0,8,3.6,8,8s-3.6,8-8,8s-8-3.6-8-8S2.6,184.5,7,184.5z M-49,345.1v-0.6h24v0.9
			c0.6,34.8,23.7,65.1,57.1,74.9c17.5,5.5,36.3,5.5,53.7,0c33.4-9.8,56.5-40.1,57.2-74.9v-0.9h16v0.6c0,44.5-34.3,83.7-81.6,93.1
			c-11.1,2.2-22.5,2.8-33.8,1.7c-3.7-0.4-7.4-0.9-11-1.7C-14.7,428.8-49,389.7-49,345.1z M47,488.5c-7.2,0-8-11.2-8-16v-17
			c0.6,0.1,1.3,0.1,1.9,0.2c0.8,0.1,1.6,0.2,2.4,0.2c3.8,0.3,7.6,0.6,11.4,0.6h0.4c3.8,0,7.6-0.2,11.4-0.6c0.8-0.1,1.6-0.1,2.5-0.2
			c0.6-0.1,1.3-0.1,1.9-0.2v17c0,4.8-0.8,16-8,16H47z M359,472.5c-22.1,0-40-17.9-40-40s17.9-40,40-40s40,17.9,40,40
			C399,454.6,381.1,472.5,359,472.5z"/>
	</g>
</g>
<g>
	<g>
		<path class="st0" d="M359,408.5c-13.3,0-24,10.7-24,24s10.7,24,24,24s24-10.7,24-24S372.3,408.5,359,408.5z M359,440.5
			c-4.4,0-8-3.6-8-8s3.6-8,8-8s8,3.6,8,8S363.4,440.5,359,440.5z"/>
	</g>
</g>
</svg>
