<?xml version="1.0" encoding="utf-8"?>
<!-- Generator: Adobe Illustrator 19.0.0, SVG Export Plug-In . SVG Version: 6.00 Build 0)  -->
<svg version="1.1" id="Capa_1" xmlns="http://www.w3.org/2000/svg" xmlns:xlink="http://www.w3.org/1999/xlink" x="0px" y="0px"
	 viewBox="-49 141 512 512" style="enable-background:new -49 141 512 512;" xml:space="preserve">
<style type="text/css">
	.st0{fill:#FFFFFF;}
</style>
<g>
	<g>
		<g>
			<path class="st0" d="M386.4,399.9V161h18.1c5.5,0,10-4.5,10-10s-4.5-10-10-10h-28.1c-5.5,0-10,4.5-10,10v30.2h-3.4
				c-25.4,0-46.1,20.7-46.1,46.1v57.6h-53.5c-5.5,0-10,4.5-10,10c0,5.5,4.5,10,10,10h53.5v27.7H95.4v-16.9c0-6,4.9-10.9,10.9-10.9
				H173c5.5,0,10-4.5,10-10c0-5.5-4.5-10-10-10h-66.7c-17,0-30.9,13.8-30.9,30.9v26.9c0,5.5,4.5,10,10,10h49.1v47.9H96.1
				c-27.7,0-50.2,22.5-50.2,50.2v92.7c-23.3,4.3-41.5,23.3-44.7,46.9h-21.1c-5.5,0-10,4.5-10,10c0,5.5,4.5,10,10,10H1.6
				c0.2,0,0.3,0,0.5,0C7.8,634.7,29.8,653,55.9,653c30.4,0,55.2-24.8,55.2-55.3c0-27.1-19.5-49.6-45.2-54.4v-31.2h98.6
				c0,0.3,0,0.5,0,0.8c0,77.2,62.7,139.9,139.7,139.9c77,0,139.7-62.8,139.7-139.9C443.9,466.6,421.2,425.4,386.4,399.9L386.4,399.9
				z M336.9,227.2c0-14.4,11.7-26.1,26.1-26.1h3.4v186.6c-9.3-4.6-19.2-8.3-29.5-10.8V227.2z M154.5,352.6h162.4v21.1
				c-4.2-0.4-8.4-0.6-12.7-0.6c-31.1,0-59.8,10.2-83,27.4c-0.4,0-0.7-0.1-1.1-0.1h-65.6V352.6z M91.1,597.7
				c0,19.4-15.8,35.3-35.2,35.3c-19.4,0-35.2-15.8-35.2-35.3s15.8-35.3,35.2-35.3C75.3,562.5,91.1,578.3,91.1,597.7L91.1,597.7z
				 M65.9,492.2v-41.5c0-16.6,13.5-30.2,30.2-30.2h103.4c-17.4,19.8-29.4,44.5-33.5,71.7L65.9,492.2L65.9,492.2z M304.2,633
				c-66,0-119.7-53.8-119.7-119.9s53.7-119.9,119.7-119.9c66,0,119.7,53.8,119.7,119.9S370.2,633,304.2,633L304.2,633z"/>
			<path class="st0" d="M304.2,434.5c-43.2,0-78.4,35.2-78.4,78.5c0,43.3,35.2,78.5,78.4,78.5s78.4-35.2,78.4-78.5
				C382.6,469.8,347.4,434.5,304.2,434.5L304.2,434.5z M304.2,571.6c-32.2,0-58.4-26.3-58.4-58.5c0-32.3,26.2-58.5,58.4-58.5
				c32.2,0,58.4,26.3,58.4,58.5C362.6,545.3,336.4,571.6,304.2,571.6L304.2,571.6z"/>
			<path class="st0" d="M209.2,298.6c1.6,3.8,5.3,6.2,9.4,6.2c4.2-0.1,8-2.8,9.3-6.8c1.3-3.9,0.1-8.3-3.1-10.9
				c-3.4-2.8-8.3-3-11.9-0.6C208.9,289.1,207.4,294.3,209.2,298.6L209.2,298.6z"/>
		</g>
	</g>
</g>
</svg>
