<?xml version="1.0" encoding="utf-8"?>
<!-- Generator: Adobe Illustrator 19.0.0, SVG Export Plug-In . SVG Version: 6.00 Build 0)  -->
<svg version="1.1" id="Capa_1" xmlns="http://www.w3.org/2000/svg" xmlns:xlink="http://www.w3.org/1999/xlink" x="0px" y="0px"
	 viewBox="-49 141 512 512" style="enable-background:new -49 141 512 512;" xml:space="preserve">
<style type="text/css">
	.st0{fill:#FFFFFF;}
</style>
<g>
	<g>
		<g>
			<path class="st0" d="M441.7,503.7V493c0-23.9-11.5-45.1-29.1-58.7c4.9-19.1,7.8-38.7,7.8-58.6c0-129.4-105.3-234.7-234.7-234.7
				S-49,246.3-49,375.7S56.3,610.3,185.7,610.3c29.6,0,58.2-5.7,85.3-16.3v37.7c0,11.8,9.6,21.3,21.3,21.3h149.3
				c11.8,0,21.3-9.6,21.3-21.3V525C463,513.2,453.4,503.7,441.7,503.7z M420.3,493v10.7H313.7V493c0-29.4,23.9-53.3,53.3-53.3
				C396.4,439.7,420.3,463.6,420.3,493z M399,375.7c0,16.1-2.3,32-5.9,47.6c-8.2-3.1-16.9-5-26.1-5c-29.7,0-55.1,17.5-67.2,42.7
				h-14.6c4.6-26.4,7.1-55,7.1-85.3s-2.6-59-7.1-85.3h95.9C392.5,316.5,399,345.3,399,375.7z M370.1,269H281
				c-9.7-42.7-25.1-77.7-44.2-100.2C293.6,182.8,341.5,219.6,370.1,269z M271,375.7c0,31.2-2.7,59.8-7.2,85.3H107.6
				c-4.6-25.5-7.2-54.2-7.2-85.3s2.7-59.8,7.2-85.3h156.2C268.3,315.9,271,344.5,271,375.7z M185.7,162.3
				c28.2,0,57.8,40.3,73.7,106.7H112C127.8,202.6,157.4,162.3,185.7,162.3z M134.6,168.8c-19.1,22.5-34.5,57.5-44.2,100.2H1.2
				C29.9,219.6,77.7,182.8,134.6,168.8z M-27.7,375.7c0-30.3,6.5-59.2,17.9-85.3h95.9c-4.6,26.4-7.1,55-7.1,85.3s2.6,59,7.1,85.3
				H-9.7C-21.2,434.8-27.7,406-27.7,375.7z M1.2,482.3h89.2c9.7,42.7,25.1,77.7,44.2,100.2C77.7,568.5,29.9,531.7,1.2,482.3z
				 M185.7,589c-28.2,0-57.8-40.3-73.7-106.7h147.3C243.5,548.7,213.9,589,185.7,589z M271,525v46c-11.2,4.9-22.6,8.9-34.4,11.7
				c19.2-22.5,34.6-57.5,44.3-100.4h12.5c-0.5,3.5-1.1,7-1.1,10.7v10.7C280.6,503.7,271,513.2,271,525z M441.7,631.7H292.3V525
				h149.3L441.7,631.7L441.7,631.7z"/>
			<path class="st0" d="M356.3,585.7v13.9c0,5.9,4.8,10.7,10.7,10.7s10.7-4.8,10.7-10.7v-13.9c6.3-3.7,10.7-10.3,10.7-18.1
				c0-11.8-9.6-21.3-21.3-21.3c-11.8,0-21.3,9.6-21.3,21.3C345.7,575.5,350.1,582,356.3,585.7z"/>
		</g>
	</g>
</g>
</svg>
