<?xml version="1.0" encoding="utf-8"?>
<!-- Generator: Adobe Illustrator 19.0.0, SVG Export Plug-In . SVG Version: 6.00 Build 0)  -->
<svg version="1.1" id="Capa_1" xmlns="http://www.w3.org/2000/svg" xmlns:xlink="http://www.w3.org/1999/xlink" x="0px" y="0px"
	 viewBox="-62 154.8 485.2 485.2" style="enable-background:new -62 154.8 485.2 485.2;" xml:space="preserve">
<style type="text/css">
	.st0{fill:#FFFFFF;}
</style>
<g>
	<path class="st0" d="M332.6,390.9l-38.9-133.5c-5.9-20.3-23.1-34.8-43.7-37.4c2-8.8,1.8-17.9-0.8-26.8
		c-6.6-22.6-27.6-38.4-51.2-38.4c-5,0-10.1,0.7-15,2.1c-13.7,4-25,13.1-31.8,25.6c-6.9,12.5-8.4,26.9-4.4,40.6
		c6,20.7,24.1,35.6,45.1,38.1c-1.8,8.5-1.5,17.2,0.9,25.7l2.7,9.4l-61.2,67.3c-4.8,5.2-7.2,12-6.9,19.1c0.1,1.8,0.3,3.5,0.7,5.1h-64
		c-9.9,0-17.9,8.1-17.9,18v187.9c-11.2,1.6-19.9,11.3-19.9,23c0,12.8,10.4,23.3,23.3,23.3S73,629.4,73,616.6
		c0-11.1-7.8-20.3-18.1-22.7V490h77.9c2.3,0,4.3-1.9,4.3-4.3s-1.9-4.3-4.3-4.3H54.9v-7.2h131.3v161.4c0,2.3,1.9,4.3,4.3,4.3
		s4.3-1.9,4.3-4.3v-230c0-7.7-4.8-14.2-11.6-16.8l30-33l18.8,64.4c3.1,10.6,9.3,19.8,17.9,26.5l0,158c0,19.4,15.8,35.2,35.2,35.2
		c19.4,0,35.2-15.8,35.2-35.2V442C333.1,428.4,337.9,409,332.6,390.9z M64.5,616.6c0,8.1-6.6,14.8-14.8,14.8S35,624.7,35,616.6
		s6.6-14.8,14.8-14.8S64.5,608.4,64.5,616.6z M155,220.7c-3.4-11.5-2-23.6,3.7-34.1s15.3-18.1,26.8-21.5c4.1-1.2,8.3-1.8,12.6-1.8
		c19.8,0,37.5,13.3,43,32.3c3.4,11.5,2,23.6-3.7,34.1c-5.8,10.5-15.3,18.1-26.8,21.5c-4.1,1.2-8.3,1.8-12.6,1.8
		C178.2,253,160.5,239.7,155,220.7z M186.1,405.6v60.2H54.9v-60.2c0-5.2,4.2-9.5,9.4-9.5h67.4c0.1,0,0.2,0,0.3,0
		c1.2,1.7,2.6,3.3,4.1,4.8c4.9,4.5,11.2,6.9,17.9,6.9c7.5,0,14.6-3.2,19.6-8.7l2.7-3c0.1,0,0.2,0,0.3,0
		C181.9,396.2,186.1,400.4,186.1,405.6z M167.4,393.4c-3.4,3.7-8.3,5.9-13.3,5.9c-4.5,0-8.8-1.7-12.1-4.7c-3.6-3.2-5.6-7.7-5.9-12.5
		c-0.2-4.8,1.4-9.4,4.7-13l86.5-95c3.4-3.7,8.3-5.9,13.3-5.9c4.5,0,8.8,1.7,12.1,4.7c7.4,6.7,7.9,18.1,1.2,25.5L167.4,393.4z
		 M311.6,604.8c0,13.5-10,24.6-23,26.4V530.8c0-2.3-1.9-4.3-4.3-4.3s-4.3,1.9-4.3,4.3V631c-12.4-2.3-21.8-13.2-21.8-26.2l0-178.2
		c0-14.7,12-26.7,26.7-26.7c14.7,0,26.7,12,26.7,26.7V604.8z M320.1,428v-1.4c0-19.4-15.8-35.2-35.2-35.2
		c-19.4,0-35.2,15.8-35.2,35.2v8.7c-4.5-4.9-7.9-10.8-9.8-17.4l-20.2-69.4l40.4-44.4c9.8-10.8,9.1-27.6-1.8-37.5
		c-4.9-4.5-11.2-6.9-17.9-6.9c-7.5,0-14.6,3.2-19.6,8.7l-18.6,20.4l-1.3-4.4c-2.2-7.6-2.3-15.5-0.4-23c4.2-0.2,8.3-0.9,12.3-2.1
		c13.7-4,25-13.1,31.8-25.6c1-1.8,1.9-3.6,2.6-5.5c17.9,1.6,33.1,14,38.2,31.5l38.9,133.5C328,405.1,326.2,417.7,320.1,428z"/>
	<path class="st0" d="M293.7,365.5c0.5,1.8,2.2,3,4.1,3c0.4,0,0.8-0.1,1.2-0.2c2.3-0.7,3.5-3,2.9-5.3l-16.5-55.5
		c-0.7-2.3-3-3.5-5.3-2.9c-2.3,0.7-3.5,3-2.9,5.3L293.7,365.5z"/>
</g>
</svg>
