<?xml version="1.0" encoding="utf-8"?>
<!-- Generator: Adobe Illustrator 19.0.0, SVG Export Plug-In . SVG Version: 6.00 Build 0)  -->
<svg version="1.1" id="Capa_1" xmlns="http://www.w3.org/2000/svg" xmlns:xlink="http://www.w3.org/1999/xlink" x="0px" y="0px"
	 viewBox="-49 141 512 512" style="enable-background:new -49 141 512 512;" xml:space="preserve">
<style type="text/css">
	.st0{fill:#FFFFFF;}
</style>
<g>
	<g>
		<g>
			<path class="st0" d="M329.7,535.1c-9.9-5-21.9-1-26.9,8.9c-21.4,42.6-64.3,69.1-111.9,69.1c-69,0-125.2-56.2-125.2-125.2
				c0-37,16.2-71.9,44.5-95.8c8.4-7.1,9.5-19.7,2.4-28.2c-7.1-8.4-19.7-9.5-28.2-2.4C47.1,392.9,25.7,439,25.7,487.8
				c0,91.1,74.1,165.2,165.2,165.2c63.3,0,119.9-35.9,147.7-91.1C343.6,552,339.6,540,329.7,535.1z"/>
			<path class="st0" d="M381.7,500.1L272,401.8c-3.7-3.3-8.4-5.1-13.4-5.1h-81.3v-22.6h65.8c11,0,20-9,20-20c0-11-9-20-20-20h-65.8
				v-12.3c40.9-9.1,71.5-45.7,71.5-89.3c0-50.5-41.1-91.5-91.5-91.5c-50.5,0-91.5,41.1-91.5,91.5c0,43.6,30.6,80.2,71.5,89.3v94.8
				c0,11,9,20,20,20H251l104,93.2c8.2,7.4,20.9,6.7,28.2-1.5C390.6,520.1,389.9,507.5,381.7,500.1z M105.8,232.5
				c0-28.4,23.1-51.5,51.5-51.5c28.4,0,51.5,23.1,51.5,51.5S185.7,284,157.3,284C128.9,284,105.8,260.9,105.8,232.5z"/>
		</g>
	</g>
</g>
</svg>
