<?xml version="1.0" encoding="utf-8"?>
<!-- Generator: Adobe Illustrator 19.0.0, SVG Export Plug-In . SVG Version: 6.00 Build 0)  -->
<svg version="1.1" id="Layer_1" xmlns="http://www.w3.org/2000/svg" xmlns:xlink="http://www.w3.org/1999/xlink" x="0px" y="0px"
	 viewBox="-49 141 512 512" style="enable-background:new -49 141 512 512;" xml:space="preserve">
<style type="text/css">
	.st0{fill:#FFFFFF;}
</style>
<g id="Planting-2">
	<g id="Outline">
		<path class="st0" d="M135,429c37.7,0,73.7-16.5,106.9-29.4c12.6-4.9,30.9,0.6,36.9,11.2c6.8,12,3.9,30-9.4,35
			C232.9,459.5,143,475.3,143,517c0,4.4,3.6,8,8,8s8-3.6,8-8c0-26.7,89.6-46.3,116-56.3c22.7-8.6,29.4-37.4,17.7-57.9
			c-10-17.5-36.4-26-56.6-18.1c-78.1,30.4-87,31.6-125.4,24.8C98,407.1,86.1,405,79,405c-28.7,0-53.3,6.9-72.9,20.5
			c-3.6,2.5-4.5,7.5-2,11.1c2.5,3.6,7.5,4.5,11.1,2c0,0,0,0,0,0C32.1,426.9,53.6,421,79,421C90.2,421,123.8,429,135,429z"/>
		<path class="st0" d="M-31,489.9c-4.2-1.2-8.7,1.2-9.9,5.5C-46.3,514-49,534.8-49,557v88c0,4.4,3.6,8,8,8s8-3.6,8-8
			c1.4-72.5-4.1-104.9,7.5-145.2C-24.3,495.5-26.7,491.1-31,489.9C-31,489.9-31,489.9-31,489.9z"/>
		<path class="st0" d="M455,285c-31.7,0.1-59.1,22.3-65.9,53.3l-13.4,62.5l-76.7,69l-108.2,30.9c-4.2,1.2-6.7,5.6-5.5,9.9
			c1.2,4.2,5.6,6.7,9.9,5.5l110-31.4c3.4-1-0.8,1.4,83.2-73.7c3.4-3.1,1.2-1,16.4-69.3c4.4-20.2,20.4-35.8,40.6-39.7l-21.9,131.2
			L299,557.7L124.4,598c-21.9,5-37.5,24.5-37.4,47c0,4.4,3.6,8,8,8s8-3.6,8-8c-0.1-15,10.3-28.1,25-31.4l176.8-40.8
			c4.2-1-3.3,4.4,131.9-130.1c3.4-3.4,0.6,2.3,26.2-148.3c0.7-4.4-2.2-8.5-6.6-9.2C455.9,285,455.4,285,455,285z"/>
		<path class="st0" d="M130.3,234.8c22,7.7,49.8,11.2,68.7-2.4v76.8c-48.1,2.5-92.1,27.6-118.7,67.8c-5.9,8.9,7.6,17.5,13.3,8.9
			c33.6-50.7,96.8-72.9,154.8-54.4c4.2,1.4,8.7-0.9,10.1-5.1c1.4-4.2-0.9-8.7-5.1-10.1c0,0-0.1,0-0.1,0c-12.4-4-25.3-6.3-38.3-7
			v-76.3c19.1,13.6,47.2,10,69.3,2.2c40.9-14.3,76.7-68.1,78.2-70.4c2.4-3.7,1.4-8.7-2.3-11.1c-0.6-0.4-1.2-0.7-1.9-0.9
			c-2.6-0.8-64-20.6-104.9-6.2c-23,8.1-37.9,19.3-46.2,31.3c-8.1-12.1-22.9-23.5-46.1-31.6c-40.5-14.2-101.5,5.7-104.1,6.6
			c-4.2,1.4-6.5,5.9-5.1,10.1c0.2,0.7,0.5,1.3,0.9,1.9C54.4,166.9,89.8,220.6,130.3,234.8z M258.7,161.5c24.1-8.4,59.4-3,84,3.3
			c-11.6,15.4-37.2,45.8-63.7,55.1C208.3,244.8,188.3,186.2,258.7,161.5L258.7,161.5z M155.9,161.2c70.1,24.6,49,82.8-20.3,58.5
			c-26.2-9.2-51.5-39.6-62.9-54.8C91.1,160,129.7,152,155.9,161.2z"/>
		<path class="st0" d="M311.5,361.6c-3.4,2.9-3.8,7.9-0.9,11.3c8.3,9.8,15.2,20.7,20.5,32.4c1.8,4,6.5,5.8,10.6,4s5.8-6.5,4-10.6
			c-5.9-13.1-13.6-25.3-22.9-36.2C320,359.2,314.9,358.8,311.5,361.6C311.5,361.6,311.5,361.6,311.5,361.6z"/>
		<circle class="st0" cx="287" cy="341" r="8"/>
		<circle class="st0" cx="-17" cy="461" r="8"/>
	</g>
</g>
</svg>
