<?xml version="1.0" encoding="utf-8"?>
<!-- Generator: Adobe Illustrator 19.0.0, SVG Export Plug-In . SVG Version: 6.00 Build 0)  -->
<svg version="1.1" id="Layer_1" xmlns="http://www.w3.org/2000/svg" xmlns:xlink="http://www.w3.org/1999/xlink" x="0px" y="0px"
	 viewBox="-49 141 512 512" style="enable-background:new -49 141 512 512;" xml:space="preserve">
<style type="text/css">
	.st0{fill:#FFFFFF;}
</style>
<g id="Outline">
	<path class="st0" d="M415,621V237h16c4.4,0,8-3.6,8-8v-56c0-4.4-3.6-8-8-8c-0.2,0-0.5,0-0.7,0l-272,24c-4.1,0.4-7.3,3.8-7.3,8v32
		c0,4.4,3.6,8,8,8h16v128h16V237h208v384h-52.4c2.9-4.7,4.4-10.2,4.4-15.8c0-11.4-6-17.5-10.4-21.9c-3.9-3.9-5.6-5.9-5.6-10.3
		c0-19.9-11-40-32-40s-32,20.1-32,40c0,4.5-1.7,6.4-5.6,10.3c-4.4,4.4-10.4,10.4-10.4,21.9c0,5.6,1.5,11,4.4,15.8H175V517
		c0-4.4-3.6-8-8-8h-48c-4.4,0-8,3.6-8,8v104H87V479.7l96-42l96,42V525h16v-38.3l12.8,5.6c4,1.8,8.8-0.1,10.5-4.1
		c0.4-1,0.7-2.1,0.7-3.2v-40c0-3.2-1.9-6.1-4.8-7.3l-128-56c-2-0.9-4.4-0.9-6.4,0l-128,56c-2.9,1.3-4.8,4.2-4.8,7.3v40
		c0,4.4,3.6,8,8,8c1.1,0,2.2-0.2,3.2-0.7l12.8-5.6V621H15V485h16v-16h-48V293h176v-16h-52.7l-29.7-29.7c-1.5-1.5-3.5-2.3-5.7-2.3H7
		c-4.4,0-8,3.6-8,8v24h-24c-4.4,0-8,3.6-8,8v192c0,4.4,3.6,8,8,8h24v136h-32v16h480v-16H415z M167,204.3l256-22.6V221H167V204.3z
		 M63,472.8v-22.5l120-52.5l120,52.5v22.5l-8-3.5V469h-0.6l-108.2-47.3c-2-0.9-4.4-0.9-6.4,0L71.6,469H71v0.3L63,472.8z M15,261
		h52.7l16,16H15V261z M127,525h32v96h-32V525z M287,621c-4.4,0-16-4.8-16-15.8c0-4.7,1.8-6.6,5.7-10.6c4.3-4.4,10.3-10.4,10.3-21.6
		c0-19,10.5-24,16-24c12.7,0,16,15.7,16,24c0,11.3,5.9,17.3,10.3,21.6c4,4,5.7,6,5.7,10.6c0,10.9-11.6,15.8-16,15.8H287z"/>
	<path class="st0" d="M199,525c-4.4,0-8,3.6-8,8v40c0,4.4,3.6,8,8,8h48c4.4,0,8-3.6,8-8v-40c0-4.4-3.6-8-8-8H199z M239,565h-32v-24
		h32V565z"/>
	<rect x="135" y="477" class="st0" width="16" height="16"/>
	<path class="st0" d="M87,405v-80h72v-16H7c-4.4,0-8,3.6-8,8v128c0,4.4,3.6,8,8,8h24v-16H15V325h56v80H87z"/>
	<path class="st0" d="M223,325h48c4.4,0,8-3.6,8-8v-48c0-4.4-3.6-8-8-8h-48c-4.4,0-8,3.6-8,8v48C215,321.4,218.6,325,223,325z
		 M231,277h32v32h-32V277z"/>
	<path class="st0" d="M319,325h48c4.4,0,8-3.6,8-8v-48c0-4.4-3.6-8-8-8h-48c-4.4,0-8,3.6-8,8v48C311,321.4,314.6,325,319,325z
		 M327,277h32v32h-32V277z"/>
	<path class="st0" d="M215,381h16v-16h32v40h16v-48c0-4.4-3.6-8-8-8h-48c-4.4,0-8,3.6-8,8V381z"/>
	<path class="st0" d="M311,405c0,4.4,3.6,8,8,8h48c4.4,0,8-3.6,8-8v-48c0-4.4-3.6-8-8-8h-48c-4.4,0-8,3.6-8,8V405z M327,365h32v32
		h-32V365z"/>
	<path class="st0" d="M335,485v16h32c4.4,0,8-3.6,8-8v-48c0-4.4-3.6-8-8-8h-32v16h24v32H335z"/>
	<rect x="31" y="509" class="st0" width="16" height="16"/>
</g>
</svg>
