<?xml version="1.0" encoding="utf-8"?>
<!-- Generator: Adobe Illustrator 19.0.0, SVG Export Plug-In . SVG Version: 6.00 Build 0)  -->
<svg version="1.1" id="Layer_1" xmlns="http://www.w3.org/2000/svg" xmlns:xlink="http://www.w3.org/1999/xlink" x="0px" y="0px"
	 viewBox="412 504.8 190.2 150.7" style="enable-background:new 412 504.8 190.2 150.7;" xml:space="preserve">
<style type="text/css">
	.st0{fill:#1F2831;}
</style>
<path class="st0" d="M602,616.7c-2.3-20.8-19.6-30-35.8-34.9c-16.2-4.9-31.5-13.3-48.8-47.6c-17.3-34.3-45.9-35.5-67.3-19.3
	c-8.9,6.6-15.3,20.8-13.8,33.8c0.9,9.2,1.2,19-4.3,30.3c-5.5,11.3-25.4,19.3-18.5,41.3c5.5,17.3,33.2,32.6,60,14.4
	c26.9-17.9,40.1-11,51.1-0.9c11,10.4,27.4,23.9,46.8,21.4C588.1,653.4,604.3,637.2,602,616.7z"/>
</svg>
